<?xml version="1.0" standalone="no"?>
<!DOCTYPE svg PUBLIC "-//W3C//DTD SVG 20010904//EN"
 "http://www.w3.org/TR/2001/REC-SVG-20010904/DTD/svg10.dtd">
<svg version="1.0" xmlns="http://www.w3.org/2000/svg"
 width="1280.000000pt" height="120.000000pt" viewBox="0 0 1280.000000 120.000000"
 preserveAspectRatio="xMidYMid meet">
<metadata>
Created by potrace 1.15, written by Peter Selinger 2001-2017
</metadata>
<g transform="translate(0.000000,520.000000) scale(0.100000,-0.100000)"
fill="#FDFDFD" stroke="none">
<path class="ground" d="M12115 4745 c-16 -13 -41 -35 -55 -49 -23 -22 -85 -55 -118 -62 -6
-1 -18 7 -26 18 -9 12 -16 16 -21 9 -4 -8 -13 -8 -28 1 -12 6 -34 11 -49 9
-16 -1 -35 4 -43 13 -14 14 -18 13 -35 -4 -21 -21 -80 -28 -80 -10 0 6 -5 10
-11 10 -5 0 -7 -5 -3 -12 7 -11 4 -11 -55 8 -13 4 -20 0 -23 -14 -4 -15 -17
-22 -52 -27 -25 -4 -46 -11 -46 -16 0 -5 -7 -9 -15 -9 -9 0 -18 -6 -21 -13 -2
-7 -14 -14 -26 -14 -12 -1 -24 -7 -28 -13 -4 -7 -11 -12 -16 -12 -5 0 -19 -4
-32 -9 -30 -11 -59 -11 -66 0 -7 10 -56 2 -73 -12 -9 -6 -13 -6 -13 2 0 7 -9
9 -24 5 -13 -3 -27 -1 -30 5 -7 11 -153 14 -170 3 -18 -11 -48 -13 -41 -2 4 6
-2 7 -17 1 -13 -4 -43 -7 -67 -5 -44 2 -62 -7 -73 -37 -6 -16 -48 -28 -78 -21
-9 1 -21 16 -28 32 -12 26 -16 29 -35 19 -12 -7 -19 -8 -15 -4 10 11 -11 35
-30 35 -8 0 -12 -3 -9 -7 13 -12 -27 -32 -45 -22 -11 6 -18 6 -18 1 0 -6 -9
-12 -19 -15 -24 -6 -78 39 -83 68 -2 11 -8 19 -13 18 -6 -1 -14 5 -18 13 -10
18 -67 18 -103 -1 -36 -19 -54 -19 -54 -1 0 8 -13 19 -30 25 -22 7 -30 7 -30
-2 0 -9 -2 -9 -8 0 -12 19 -89 26 -96 8 -3 -8 -12 -15 -21 -15 -8 0 -15 -7
-15 -15 0 -8 -7 -15 -15 -15 -8 0 -15 -4 -15 -10 0 -5 -6 -7 -14 -4 -8 3 -17
0 -21 -6 -4 -6 -20 -8 -38 -5 -28 5 -38 0 -84 -45 -39 -39 -61 -52 -87 -55
-28 -2 -34 0 -33 15 0 10 6 16 13 13 13 -5 36 74 23 82 -4 3 -6 12 -3 19 4 9
-5 16 -25 21 -17 4 -31 10 -31 15 0 20 -49 14 -100 -12 -30 -15 -57 -23 -60
-17 -4 5 -17 9 -31 8 -13 -1 -38 2 -54 6 -23 5 -36 2 -54 -14 -28 -24 -46 -27
-38 -7 8 20 -13 36 -45 36 -21 0 -32 -7 -40 -25 -6 -14 -17 -25 -25 -25 -7 0
-13 -4 -13 -8 0 -10 -102 -62 -122 -62 -8 0 -26 -11 -39 -24 -25 -24 -109 -45
-109 -26 0 5 -5 10 -11 10 -5 0 -7 -4 -4 -10 8 -14 5 -13 -39 10 -34 17 -40
17 -53 5 -8 -8 -17 -15 -19 -15 -9 0 -34 28 -34 38 0 13 -39 22 -46 11 -3 -5
-10 -7 -15 -4 -5 4 -9 1 -9 -4 0 -6 -10 -11 -23 -11 -12 0 -31 -6 -42 -13 -11
-8 -44 -15 -73 -16 -29 -1 -65 -9 -80 -17 -15 -7 -35 -14 -44 -14 -18 0 -42
-33 -32 -43 7 -7 -36 -31 -58 -33 -14 -1 -16 4 -12 21 7 30 -14 42 -31 19 -7
-11 -9 -20 -4 -22 5 -2 9 -8 9 -14 0 -7 -4 -7 -13 0 -7 6 -22 9 -34 6 -17 -5
-22 0 -28 25 -3 17 -10 30 -13 29 -13 -4 -82 34 -82 46 0 6 -5 4 -10 -4 -6 -9
-10 -11 -10 -3 0 7 -6 10 -14 7 -8 -3 -17 -1 -21 5 -3 6 -1 11 6 11 6 0 1 9
-12 20 -21 16 -25 17 -35 4 -10 -12 -13 -10 -19 13 -5 15 -8 31 -7 36 1 4 -9
7 -23 7 -18 0 -28 -7 -36 -26 -9 -26 -10 -26 -24 -8 -8 10 -15 35 -15 56 0 42
-21 46 -50 8 -10 -13 -28 -22 -43 -22 -15 0 -32 -7 -38 -14 -6 -8 -16 -11 -21
-8 -6 4 -31 7 -57 8 -25 1 -72 14 -104 29 -56 25 -60 26 -84 10 -30 -20 -114
-34 -129 -22 -6 5 -29 11 -52 14 -36 4 -41 3 -35 -12 5 -13 2 -15 -11 -10 -10
4 -15 3 -11 -3 12 -19 -5 -31 -28 -18 -26 14 -77 18 -77 6 0 -15 -55 -8 -95
12 -52 27 -136 25 -185 -3 -19 -12 -38 -25 -41 -30 -4 -5 -9 -4 -13 2 -11 17
-34 13 -65 -10 -27 -20 -58 -19 -46 2 4 5 1 9 -6 9 -7 0 -23 10 -35 21 -22 20
-25 21 -47 6 -21 -13 -28 -14 -51 -2 -14 8 -35 12 -46 10 -11 -2 -22 0 -25 6
-4 5 -11 9 -17 9 -6 0 -8 -3 -5 -7 4 -3 -11 -14 -33 -24 -25 -11 -38 -23 -35
-31 5 -13 -77 -81 -100 -83 -11 -1 -62 -22 -85 -36 -38 -22 -83 -38 -92 -33
-5 4 -8 15 -5 25 4 16 -1 19 -33 19 -21 0 -43 7 -50 15 -15 18 -46 20 -53 3
-4 -10 -6 -10 -6 0 -1 6 -6 12 -13 12 -6 0 -8 -3 -5 -7 11 -10 -13 -33 -34
-33 -11 0 -28 6 -40 13 -17 10 -22 9 -33 -5 -14 -19 -36 -24 -36 -9 0 5 5 11
12 13 21 7 1 37 -21 31 -12 -3 -21 -9 -21 -14 0 -5 -5 -9 -11 -9 -6 0 -7 5 -2
13 14 23 13 45 -5 52 -32 14 -65 14 -92 0 -29 -15 -63 -13 -85 5 -7 6 -35 17
-63 25 -43 13 -56 14 -84 2 -63 -25 -127 -10 -128 29 0 7 -19 14 -42 17 -38 4
-46 1 -69 -24 -14 -16 -31 -29 -37 -29 -7 0 -17 -11 -23 -24 -10 -21 -18 -24
-58 -23 -35 2 -46 -2 -46 -13 0 -8 -4 -18 -10 -22 -12 -9 -35 10 -35 28 0 8
-11 19 -24 25 -27 13 -66 -3 -66 -26 0 -8 -5 -15 -12 -15 -6 0 -19 -6 -27 -14
-10 -9 -43 -16 -81 -18 -62 -3 -65 -2 -63 20 5 38 -35 45 -93 17 -49 -25 -100
-32 -106 -16 -5 12 -78 24 -78 12 0 -10 -67 -7 -78 4 -4 3 0 10 8 16 10 6 3 8
-24 5 -26 -3 -50 -15 -71 -36 l-33 -32 -23 23 c-21 21 -21 23 -4 29 18 6 18 7
1 13 -10 4 -25 2 -34 -5 -12 -10 -16 -10 -19 -1 -4 10 -9 10 -24 0 -14 -8 -22
-9 -27 -1 -4 6 -15 13 -25 17 -9 4 -17 10 -16 14 4 21 -3 32 -22 38 -15 5 -18
10 -10 18 6 6 11 22 11 35 0 21 -4 24 -30 20 -17 -3 -30 -1 -30 4 0 5 -4 7 -9
4 -5 -4 -11 -1 -13 4 -2 6 -13 12 -26 13 -12 0 -22 6 -22 12 -1 5 -8 -2 -16
-17 -8 -16 -20 -29 -27 -30 -7 0 -16 -2 -22 -2 -5 -1 -15 -4 -20 -8 -6 -4 -56
-11 -110 -17 -85 -10 -108 -9 -153 4 -51 16 -55 15 -93 -4 -22 -12 -55 -21
-74 -21 -18 0 -37 -5 -40 -10 -10 -16 -102 -6 -123 12 -9 9 -30 18 -47 21 -69
14 -105 16 -105 8 0 -4 -14 -8 -32 -9 -17 0 -34 -6 -38 -12 -14 -23 -55 0 -72
40 -13 31 -22 40 -40 40 -13 0 -34 9 -46 21 -20 18 -24 19 -38 5 -8 -9 -24
-16 -33 -16 -25 0 -39 -19 -39 -53 1 -41 -27 -66 -66 -61 -23 3 -40 -2 -56
-16 -13 -11 -31 -20 -41 -20 -10 0 -30 -5 -44 -12 -18 -8 -31 -8 -48 0 -12 6
-41 18 -64 28 -23 10 -40 22 -36 27 11 17 -71 2 -92 -18 -12 -11 -20 -23 -19
-26 2 -3 -2 -6 -9 -7 -7 -1 -34 -6 -62 -11 -27 -5 -57 -5 -65 -1 -25 13 -56
-6 -90 -54 -29 -43 -34 -46 -74 -46 -29 0 -46 5 -49 14 -7 19 -47 9 -47 -11 0
-13 -9 -14 -47 -9 -69 10 -116 8 -108 -5 8 -12 -35 -18 -48 -6 -24 23 -63 37
-122 41 -33 3 -61 10 -63 16 -2 5 -10 10 -18 10 -8 0 -14 4 -14 9 0 13 -53 8
-65 -6 -8 -10 -16 -10 -39 2 -16 9 -37 17 -45 19 -21 4 -52 15 -73 27 -10 5
-24 9 -32 9 -8 0 -16 6 -19 14 -3 7 -17 14 -32 14 -40 0 -58 24 -64 85 -1 4
-8 7 -16 7 -14 0 -13 -3 1 -25 9 -14 15 -27 13 -29 -2 -2 -25 -2 -51 1 -49 6
-56 16 -25 44 21 20 21 29 0 44 -17 13 -56 9 -48 -5 3 -5 2 -15 -1 -24 -7 -19
-50 -21 -61 -3 -4 7 -25 26 -46 41 -33 26 -41 27 -76 18 -32 -8 -44 -6 -67 9
-27 17 -28 17 -63 -7 -39 -26 -65 -30 -107 -14 -19 7 -30 7 -40 -1 -8 -7 -31
-9 -54 -6 -53 7 -116 -18 -124 -48 -6 -22 -8 -23 -108 -19 -57 2 -114 6 -128
8 -14 1 -35 4 -48 4 -13 1 -20 7 -17 12 3 6 2 10 -3 10 -5 0 -14 11 -20 25 -7
15 -17 22 -26 19 -8 -3 -17 -1 -21 5 -3 6 -10 11 -16 11 -5 0 -9 -886 -9
-2345 l0 -2345 6400 0 6400 0 -2 2238 -3 2237 -75 1 c-96 0 -120 8 -145 47
-21 33 -41 40 -125 40 -41 0 -49 4 -73 38 -15 20 -27 42 -27 48 0 5 -12 27
-26 48 -25 37 -27 38 -85 38 -47 0 -63 4 -70 18 -13 22 -18 21 -54 -8z m-1895
-186 c0 -5 -4 -9 -10 -9 -5 0 -10 7 -10 16 0 8 5 12 10 9 6 -3 10 -10 10 -16z
m-52 -8 c3 -8 -1 -12 -9 -9 -7 2 -15 10 -17 17 -3 8 1 12 9 9 7 -2 15 -10 17
-17z m-6988 -6 c0 -17 -22 -29 -41 -23 -8 3 -6 9 5 21 22 21 36 22 36 2z"/>
<path class="ground" d="M4237 4633 c-12 -11 -8 -19 12 -20 11 -1 22 5 25 13 6 14 -24 20 -37
7z"/>
<path class="ground" d="M4187 4604 c-4 -4 -7 -14 -7 -23 0 -11 3 -12 11 -4 6 6 10 16 7 23
-2 6 -7 8 -11 4z"/>
<path class="ground" d="M4220 4584 c0 -8 5 -12 10 -9 6 4 8 11 5 16 -9 14 -15 11 -15 -7z"/>
<path class="ground" d="M4265 4581 c-10 -31 3 -60 25 -58 19 1 30 37 11 37 -5 0 -8 7 -7 16
2 25 -21 28 -29 5z"/>
<path class="ground" d="M12410 4596 c0 -2 7 -7 16 -10 8 -3 12 -2 9 4 -6 10 -25 14 -25 6z"/>
<path class="ground" d="M4323 4576 c0 -8 6 -12 14 -9 7 3 10 9 7 14 -8 14 -21 11 -21 -5z"/>
<path class="ground" d="M2090 4566 c0 -2 7 -9 15 -16 13 -11 14 -10 9 4 -5 14 -24 23 -24 12z"/>
<path class="ground" d="M3315 4560 c3 -5 8 -10 11 -10 2 0 4 5 4 10 0 6 -5 10 -11 10 -5 0
-7 -4 -4 -10z"/>
<path class="ground" d="M2080 4531 c0 -12 5 -21 10 -21 6 0 10 6 10 14 0 8 -4 18 -10 21 -5
3 -10 -3 -10 -14z"/>
<path class="ground" d="M4200 4510 c0 -5 5 -10 10 -10 6 0 10 5 10 10 0 6 -4 10 -10 10 -5 0
-10 -4 -10 -10z"/>
<path class="ground" d="M8255 4511 c-8 -14 28 -31 44 -21 8 4 10 13 7 19 -9 13 -43 15 -51 2z"/>
<path class="ground" d="M8306 4463 c5 -5 12 -12 16 -18 4 -6 8 -2 8 8 0 9 -7 17 -17 17 -9 0
-12 -3 -7 -7z"/>
<path class="ground" d="M2004 4423 c2 -9 8 -19 14 -21 6 -2 8 5 5 17 -6 25 -22 28 -19 4z"/>
</g>
</svg>
